<?xml version="1.0" encoding="utf-8"?>
<!-- Generator: Adobe Illustrator 24.2.1, SVG Export Plug-In . SVG Version: 6.00 Build 0)  -->
<svg version="1.1" id="Layer_1" xmlns="http://www.w3.org/2000/svg" xmlns:xlink="http://www.w3.org/1999/xlink" x="0px" y="0px"
	 viewBox="0 0 728.8 491.5" style="enable-background:new 0 0 728.8 491.5;" xml:space="preserve">
<style type="text/css">
	.st0{fill:#158285;}
	.st1{fill:#F7941D;}
	.st2{fill:#2BB574;}
	.st3{fill:#FCB614;}
</style>
<g>
	<g>
		<g>
			<path class="st0" d="M33.9,260.4c1.7,0,3.2-1,3.2-2.9c0-1.7-1.4-2.9-3.2-2.9s-3.2,1.2-3.2,2.9C30.7,259.4,32.3,260.4,33.9,260.4z
				"/>
			<path class="st0" d="M42.4,260.4c1.7,0,3.2-1,3.2-2.9c0-1.7-1.4-2.9-3.2-2.9s-3.2,1.2-3.2,2.9C39.2,259.4,40.8,260.4,42.4,260.4z
				"/>
			<path class="st0" d="M49.9,292.1c-1.8,0-3.2,1.2-3.2,2.9c0,1.9,1.5,2.9,3.2,2.9s3.2-1,3.2-2.9C53.1,293.3,51.7,292.1,49.9,292.1z
				"/>
			<path class="st0" d="M58.5,292.1c-1.8,0-3.2,1.2-3.2,2.9c0,1.9,1.5,2.9,3.2,2.9s3.2-1,3.2-2.9C61.7,293.3,60.3,292.1,58.5,292.1z
				"/>
			<path class="st0" d="M78.4,276.2c0-4.1,2.6-6.5,6.2-6.5c2,0,3.9,0.6,6.2,1.7l1.7-4.7c-3-1.3-5.9-2-8.3-2
				c-6.3,0-10.7,3.8-10.7,10.7c0,2,0.5,4.5,1.6,7.6H64.3v-18h-5.1v18H45.4v-18h-8.3c-7.9,0-13.1,4.8-13.1,11.6l0,0
				c0,6.8,5,11.5,12.4,11.5h57V283H80.7C79.2,280.7,78.4,278.3,78.4,276.2z M40.3,282.9H36c-4.1,0-7.2-2.6-7.2-6.4l0,0
				c0-3.9,3-6.5,7.2-6.5h4.3V282.9z"/>
			<path class="st0" d="M138.9,261.4c1.7,0,3.2-1,3.2-2.9c0-1.7-1.4-2.9-3.2-2.9s-3.2,1.2-3.2,2.9
				C135.7,260.4,137.2,261.4,138.9,261.4z"/>
			<path class="st0" d="M147.4,261.4c1.7,0,3.2-1,3.2-2.9c0-1.7-1.4-2.9-3.2-2.9s-3.2,1.2-3.2,2.9
				C144.2,260.4,145.7,261.4,147.4,261.4z"/>
			<path class="st0" d="M170.5,264.4c-2.9,0-5.6,0.9-8.4,2.4l1.8,4.7c2.4-1.4,4-1.9,6.3-1.9c6.2,0,7.4,7.2,10.8,13.4h-26v-18h-5v18
				h-13.8v-6.2c0-7.4-4.5-12.3-11.3-12.3l0,0c-6.8,0-11.3,4.9-11.3,12.3v-0.1c0,4.4-2.1,6.4-6.2,6.4h-3.5v-27.3h-5.1v32.5h8.6
				c3.7,0,6.9-0.9,8.4-3.7c2,2.8,5.2,3.7,9.1,3.7l0,0h11.3h51.5v-5.1C182.9,280.8,182.8,264.4,170.5,264.4z M131.1,282.9h-6.2
				c-3.7,0-6.2-2.1-6.2-6.3l0,0c0-4.2,2.5-7,6.2-7l0,0c3.7,0,6.2,2.8,6.2,7V282.9z"/>
			<path class="st0" d="M173.7,292.1c-1.8,0-3.3,1.2-3.3,2.9c0,2,1.6,3,3.3,3s3.2-1,3.2-3C176.9,293.2,175.5,292.1,173.7,292.1z"/>
			<polygon class="st0" points="212.1,282.9 194,282.9 194,288.1 217.2,288.1 217.2,255.6 212.1,255.6 			"/>
			<rect x="199.4" y="258.8" class="st0" width="5.1" height="21.4"/>
			<rect x="223.8" y="255.6" class="st0" width="5.1" height="32.5"/>
		</g>
		<g>
			<path class="st0" d="M247,257.5c0,1.9,1.5,2.9,3.2,2.9s3.2-1,3.2-2.9c0-1.7-1.4-2.9-3.2-2.9C248.4,254.5,247,255.7,247,257.5z"/>
			<path class="st0" d="M255.5,257.5c0,1.9,1.5,2.9,3.2,2.9s3.2-1,3.2-2.9c0-1.7-1.4-2.9-3.2-2.9
				C256.9,254.5,255.5,255.7,255.5,257.5z"/>
			<path class="st0" d="M266.2,292.1c-1.8,0-3.2,1.2-3.2,2.9c0,1.9,1.5,2.9,3.2,2.9s3.2-1,3.2-2.9
				C269.4,293.3,268,292.1,266.2,292.1z"/>
			<path class="st0" d="M274.7,292.1c-1.8,0-3.2,1.2-3.2,2.9c0,1.9,1.5,2.9,3.2,2.9s3.2-1,3.2-2.9
				C277.9,293.3,276.5,292.1,274.7,292.1z"/>
			<path class="st0" d="M320.2,261.5c1.7,0,3.2-1,3.2-3c0-1.8-1.4-2.9-3.2-2.9c-1.8,0-3.3,1.2-3.3,2.9
				C317,260.5,318.5,261.5,320.2,261.5z"/>
			<path class="st0" d="M337.3,255.6c-1.8,0-3.2,1.2-3.2,2.9c0,1.9,1.5,2.9,3.2,2.9s3.2-1,3.2-2.9
				C340.5,256.8,339.1,255.6,337.3,255.6z"/>
			<path class="st0" d="M343.1,258.5c0,1.9,1.5,2.9,3.2,2.9s3.2-1,3.2-2.9c0-1.7-1.4-2.9-3.2-2.9S343.1,256.8,343.1,258.5z"/>
			<path class="st0" d="M365.4,282.9h-10.7v-18h-5.1v18h-15.4v-18h-5.1v18h-14.6v-6.2c0-7.4-4.5-12.3-11.3-12.3l0,0
				c-6.8,0-11.3,4.9-11.3,12.3v-0.1c0,4.4-2.1,6.4-6.2,6.4h-5.2v-18h-5.1v18h-13.8v-18h-8.3c-7.9,0-13.1,4.8-13.1,11.6l0,0
				c0,6.8,5,11.5,12.4,11.5h33c3.7,0,6.9-0.9,8.4-3.7c2,2.8,5.2,3.7,9.1,3.7l0,0h11.3h55.9v-32.5h-5.1v27.3L365.4,282.9L365.4,282.9
				z M256.6,282.9h-4.3c-4.1,0-7.2-2.6-7.2-6.4l0,0c0-3.9,3-6.5,7.2-6.5h4.3V282.9z M309.4,282.9h-6.2c-3.7,0-6.2-2.1-6.2-6.3l0,0
				c0-4.2,2.5-7,6.2-7l0,0c3.7,0,6.2,2.8,6.2,7V282.9z"/>
			<rect x="377" y="255.6" class="st0" width="5.1" height="32.5"/>
			<path class="st0" d="M399.5,264.9c-7.9,0-13.1,4.8-13.1,11.6l0,0c0,6.8,5,11.5,12.4,11.5h3.9c-0.1,2.8-2.1,3.7-4.9,3.7
				c-2.2,0-4.4-0.4-6.7-1.1l1,5.4c2,0.6,3.8,0.8,5.9,0.8c6.5,0,9.8-2.4,9.8-10.1v-21.8H399.5z M402.8,276.4L402.8,276.4v6.5h-4.3
				c-4.1,0-7.2-2.6-7.2-6.4l0,0c0-3.9,3-6.5,7.2-6.5h4.3V276.4z"/>
		</g>
		<g>
			<path class="st0" d="M290.9,224.5c0-7.3-3.4-11.1-10.9-11.1h-3.6v5.1h4.3c3.5,0,5.3,1.8,5.3,5.5v7.4h-14.1v5.1h18.9v-12H290.9z"
				/>
			<path class="st0" d="M303.8,235.6v-22.2h-5.1v23c0,3.2-1.5,4.3-3.6,4.3c-1,0-1.9-0.1-3.2-0.2l-0.5,4.4c1,0.2,2.1,0.4,3.2,0.4
				C300,245.4,303.8,243.2,303.8,235.6z"/>
			<rect x="309.7" y="204.1" class="st0" width="5.1" height="32.5"/>
			<path class="st0" d="M331.6,236.5h3.9c-0.1,2.8-2.1,3.7-4.9,3.7c-2.2,0-4.4-0.4-6.7-1.1l1,5.4c2,0.6,2.8,0.8,4.9,0.8
				c6.1,0,10.4-2.1,10.8-8.8h10.9l0,0c3.5-0.1,6.5-1,7.9-3.7c2,2.8,5.2,3.7,9.1,3.7l0,0h11.3h15.7V204h-5.1v27.3h-10.6v-6.2
				c0-7.4-4.5-12.3-11.3-12.3l0,0c-6.8,0-11.3,4.9-11.3,12.3V225c0,4.4-2.1,6.4-6.2,6.4h-10.4v-18h-8.3c-7.9,0-13.1,4.8-13.1,11.6
				l0,0C319.1,231.8,324.1,236.5,331.6,236.5z M362.2,225.1c0-4.2,2.5-7,6.2-7l0,0c3.7,0,6.2,2.8,6.2,7v6.3h-6.2
				C364.7,231.4,362.2,229.3,362.2,225.1L362.2,225.1z M324,225c0-3.9,3-6.5,7.2-6.5h4.3v6.4l0,0v6.5h-4.3
				C327,231.4,324,228.9,324,225L324,225z"/>
			<rect x="402.1" y="204.1" class="st0" width="5.1" height="32.5"/>
		</g>
		<g>
			<path class="st0" d="M128.6,208.9c1.7,0,3.2-1,3.2-2.9c0-1.7-1.4-2.9-3.2-2.9s-3.2,1.2-3.2,2.9
				C125.4,207.9,126.9,208.9,128.6,208.9z"/>
			<path class="st0" d="M120.1,208.9c1.7,0,3.2-1,3.2-2.9c0-1.7-1.4-2.9-3.2-2.9c-1.8,0-3.2,1.2-3.2,2.9
				C116.9,207.9,118.4,208.9,120.1,208.9z"/>
			<path class="st0" d="M122.6,236.5h27.8v-23.1h-5.1v18h-13.8v-18h-8.3c-7.9,0-13.1,4.8-13.1,11.6l0,0
				C110.2,231.8,115.2,236.5,122.6,236.5z M115,225c0-3.9,3-6.5,7.2-6.5h4.3v12.9h-4.3C118.1,231.4,115,228.9,115,225L115,225z"/>
			<path class="st0" d="M195.8,206.2c1.6,0,3-0.9,3-2.7c0-1.6-1.3-2.7-3-2.7s-3,1.1-3,2.7C192.8,205.3,194.3,206.2,195.8,206.2z"/>
			<path class="st0" d="M191.7,212.6c1.6,0,3.1-1,3.1-2.8c0-1.7-1.4-2.8-3.1-2.8c-1.7,0-3.1,1.1-3.1,2.8
				C188.6,211.7,190.1,212.6,191.7,212.6z"/>
			<path class="st0" d="M196.9,209.8c0,1.9,1.4,2.8,3.1,2.8c1.6,0,3.1-1,3.1-2.8c0-1.7-1.3-2.8-3.1-2.8S196.9,208.1,196.9,209.8z"/>
			<path class="st0" d="M248.4,204.1h-5.1v27.3h-10v-18h-5.1v18h-13.8v-18h-5.1v18h-10.7v-14.8h-5.1v14.8h-9.3v-14.8h-5.1v14.8H166
				v-18.5h-5.1v23.5c0,3.2-1.5,4.3-3.6,4.3c-1,0-1.9-0.1-3.2-0.2l-0.5,4.4c1,0.2,2.1,0.4,3.2,0.4c5.2,0,9-2,9.2-8.8h82.3v-32.4
				H248.4z"/>
			<rect x="255" y="204.1" class="st0" width="5.1" height="32.5"/>
			<path class="st0" d="M139,243.5c0-1.7-1.4-2.9-3.2-2.9s-3.2,1.2-3.2,2.9c0,1.9,1.5,2.9,3.2,2.9S139,245.4,139,243.5z"/>
			<path class="st0" d="M147.5,243.5c0-1.7-1.4-2.9-3.2-2.9s-3.2,1.2-3.2,2.9c0,1.9,1.5,2.9,3.2,2.9S147.5,245.4,147.5,243.5z"/>
			<path class="st0" d="M221.3,240.6c-1.8,0-3.2,1.2-3.2,2.9c0,1.9,1.5,2.9,3.2,2.9s3.2-1,3.2-2.9
				C224.5,241.8,223.2,240.6,221.3,240.6z"/>
		</g>
	</g>
	<g>
		<path class="st0" d="M543.1,195.6c1.1,0.2,2.1,0.4,3.2,0.5c5-9.1,10.6-17.6,17-25.5c-15.5-12.1-33.2-21.8-53.9-29L543.1,195.6z
			 M630,264l-55.5-18l65.2,104.3C643.6,318.9,639.9,290.7,630,264z"/>
		<path class="st1" d="M539.1,223.8c24-38.4,55.3-66.5,100.6-82.1L574.6,246l-65.2,104.3C503.6,302.7,515.1,262.3,539.1,223.8z"/>
		<path class="st2" d="M445.1,203.9l69.3,22.5c7.3-4,14.8-7.7,22.6-11c1-2.5,2.1-4.9,3.2-7.3c1.9-4.1,3.9-8.1,6-12
			C512.8,190.8,479.6,192.6,445.1,203.9z M634.7,226.5L574.6,246L704,288.1C684.7,261.3,661.5,241.4,634.7,226.5z"/>
		<path class="st3" d="M445.1,288.1l74-24c2.7-7.2,5.8-14.2,9.3-21.2c2.1-9.2,5-18.4,8.7-27.4C500.4,231.1,469.7,254,445.1,288.1z
			 M606.1,195.6L574.6,246L704,203.9C670.7,193,638.4,190.9,606.1,195.6z"/>
	</g>
</g>
<g>
	<path class="st0" d="M31,311.6c0.4,0,0.7-0.1,0.9-0.4c0.3-0.3,0.4-0.5,0.4-0.9c0-0.4-0.1-0.7-0.4-0.9c-0.3-0.2-0.6-0.3-0.9-0.3
		c-0.4,0-0.7,0.1-1,0.3c-0.3,0.2-0.4,0.5-0.4,0.9c0,0.3,0.1,0.6,0.4,0.9C30.3,311.5,30.6,311.6,31,311.6z"/>
	<path class="st0" d="M27.8,311.6c0.4,0,0.7-0.1,1-0.4c0.3-0.3,0.4-0.5,0.4-0.9c0-0.4-0.1-0.7-0.4-0.9c-0.3-0.2-0.6-0.3-1-0.3
		c-0.4,0-0.7,0.1-0.9,0.3c-0.3,0.2-0.4,0.5-0.4,0.9c0,0.3,0.1,0.6,0.4,0.9C27.1,311.5,27.5,311.6,27.8,311.6z"/>
	<path class="st0" d="M40.2,324.9c-0.4,0-0.7,0.1-1,0.3c-0.3,0.2-0.4,0.5-0.4,0.9c0,0.3,0.1,0.6,0.4,0.9c0.3,0.3,0.6,0.4,1,0.4
		c0.4,0,0.7-0.1,0.9-0.4c0.3-0.3,0.4-0.5,0.4-0.9c0-0.4-0.1-0.7-0.4-0.9C40.8,325,40.5,324.9,40.2,324.9z"/>
	<path class="st0" d="M37,324.9c-0.4,0-0.7,0.1-0.9,0.3c-0.3,0.2-0.4,0.5-0.4,0.9c0,0.3,0.1,0.6,0.4,0.9c0.3,0.3,0.6,0.4,0.9,0.4
		c0.4,0,0.7-0.1,1-0.4c0.3-0.3,0.4-0.5,0.4-0.9c0-0.4-0.1-0.7-0.4-0.9C37.7,325,37.4,324.9,37,324.9z"/>
	<path class="st0" d="M51.7,312.5c-0.4-0.4-0.8-0.7-1.4-1c-0.5-0.2-1.1-0.4-1.7-0.4c-0.6,0-1.1,0.1-1.7,0.3
		c-0.6,0.2-1.1,0.5-1.5,0.9c-0.4,0.4-0.8,0.9-1.1,1.5c-0.3,0.6-0.4,1.2-0.4,2c0,0.3,0,0.7,0.1,1.1c0.1,0.4,0.2,0.8,0.4,1.4
		c0.4,0.4,0.8,0.7,1,0.9c0.2,0.2,0.4,0.4,0.5,0.5c0.1,0.1,0.2,0.2,0.2,0.2c0,0,0.1,0.1,0.1,0.1c0.1,0,0.1,0.1,0.2,0.1
		c0.1,0,0.2,0.1,0.4,0.1c0.2,0,0.4,0.1,0.7,0.1c0.3,0,0.6,0,1.1,0c0.2,0,0.4,0,0.6,0c0.2,0,0.5,0,0.8,0c-0.2,0.2-0.5,0.4-0.9,0.5
		c-0.3,0.1-0.7,0.2-1,0.2c-0.3,0.1-0.6,0.1-0.9,0.1c-0.3,0-0.5,0-0.7,0l-4.1,0c-0.4,0-0.9-0.1-1.4-0.2c-0.5-0.1-1-0.3-1.4-0.6
		c0.1-0.4,0.2-0.8,0.2-1.3c0.1-0.5,0.1-1.1,0.1-1.9c0-0.6,0-1.2-0.1-1.8c-0.4,0-0.8,0.1-1.2,0.1c-0.4,0-0.8,0.1-1.2,0.1
		c0,0.3,0,0.5,0,0.8c0,0.3,0,0.5,0,0.7c0,0.7,0,1.3,0,1.7c0,0.4-0.1,0.8-0.2,1.1c-0.1,0.3-0.3,0.5-0.5,0.6c-0.2,0.2-0.6,0.3-1,0.4
		L35,321c0,0,0,0,0,0c0,0,0,0,0,0h-0.4c-0.5,0-0.9-0.1-1.2-0.2c-0.3-0.2-0.5-0.4-0.6-0.6c-0.1-0.3-0.2-0.6-0.2-1c0-0.4,0-0.8,0-1.3
		c0-0.1,0-0.4,0-0.7c0-0.4,0-0.7,0-1.1c0-0.4,0-0.8,0-1.2c0-0.4,0-0.7,0-0.9c0-0.2,0-0.4,0-0.5c0-0.2,0-0.3,0-0.5
		c-0.4,0-0.8,0-1.2,0c-0.4,0-0.8,0-1.2,0v1.3c-0.2,0-0.6,0-1.1,0.1c-0.5,0.1-1,0.2-1.6,0.4c-0.6,0.2-1.1,0.5-1.7,0.9
		c-0.5,0.4-1,0.9-1.4,1.6c-0.2,0.2-0.3,0.5-0.5,0.9c-0.1,0.4-0.2,0.8-0.2,1.2c0,0.6,0.1,1.2,0.4,1.7c0.3,0.5,0.6,0.9,1,1.2
		c0.4,0.3,0.7,0.5,1.1,0.7c0.4,0.2,0.6,0.3,0.8,0.3c0.2,0.1,0.4,0.1,0.7,0.1c0.5,0,1,0,1.5-0.1c0.5-0.1,0.9-0.2,1.4-0.3l-0.6-2.4
		c-0.4,0.2-0.8,0.3-1.2,0.4c-0.4,0.1-0.8,0.1-1.2,0c-0.4-0.1-0.7-0.2-1-0.4c-0.3-0.2-0.4-0.5-0.4-0.9c0-0.5,0.1-1,0.4-1.3
		c0.2-0.4,0.6-0.7,1-0.9c0.4-0.2,0.8-0.4,1.3-0.5c0.5-0.1,0.9-0.2,1.3-0.3c0,0.2,0,0.5,0,0.7c0,0.3,0,0.5,0,0.8c0,0.3,0,0.5,0,0.7
		c0,0.2,0.1,0.5,0.1,0.9c0.1,0.8,0.3,1.5,0.7,2c0.4,0.5,0.9,0.8,1.4,1.1c0.5,0.2,1,0.4,1.4,0.4c0.4,0.1,0.7,0.1,0.9,0.1l0.3,0
		c0.2,0,0.5,0,0.8-0.1c0.3-0.1,0.6-0.2,1-0.3c0.3-0.1,0.6-0.2,0.9-0.4c0.3-0.1,0.6-0.3,0.8-0.4c0.2,0.1,0.4,0.3,0.7,0.4
		c0.3,0.1,0.5,0.3,0.9,0.4c0.3,0.1,0.7,0.2,1.1,0.3c0.4,0.1,0.9,0.1,1.4,0.1c0,0,0,0,0,0h3.8c1.4,0,2.5-0.1,3.3-0.2
		c0.9-0.2,1.5-0.5,2-1c0.5-0.5,0.8-1.3,1-2.3c0.2-1,0.3-2.4,0.3-4.1c0-0.7-0.1-1.3-0.3-1.8C52.4,313.4,52.1,312.9,51.7,312.5z
		 M50.6,317.1c0,0.3,0,0.5-0.1,0.7c-0.3,0-0.6,0-0.9,0c-0.3,0-0.5,0-0.7,0c-0.3,0-0.6,0-0.8,0c-0.2,0-0.4,0-0.5,0
		c-0.1-0.1-0.2-0.2-0.4-0.3c-0.1-0.1-0.3-0.2-0.4-0.4c-0.1-0.2-0.2-0.3-0.3-0.5c-0.1-0.2-0.1-0.5-0.1-0.8c0-0.4,0.1-0.7,0.2-1
		c0.2-0.3,0.4-0.5,0.6-0.7c0.2-0.2,0.5-0.3,0.7-0.4c0.3-0.1,0.5-0.1,0.7-0.1c0.4,0,0.7,0.1,0.9,0.3c0.2,0.2,0.4,0.4,0.6,0.6
		c0.2,0.3,0.3,0.6,0.3,0.9c0.1,0.3,0.1,0.6,0.1,0.9C50.6,316.5,50.6,316.8,50.6,317.1z"/>
	<path class="st0" d="M46.6,309.7c0.4,0,0.7-0.1,1-0.4c0.3-0.3,0.4-0.5,0.4-0.9c0-0.4-0.1-0.7-0.4-0.9c-0.3-0.2-0.6-0.3-1-0.3
		c-0.4,0-0.7,0.1-0.9,0.3c-0.3,0.2-0.4,0.5-0.4,0.9c0,0.3,0.1,0.6,0.4,0.9C45.9,309.6,46.2,309.7,46.6,309.7z"/>
	<path class="st0" d="M49.7,309.7c0.4,0,0.7-0.1,0.9-0.4c0.3-0.3,0.4-0.5,0.4-0.9c0-0.4-0.1-0.7-0.4-0.9c-0.3-0.2-0.6-0.3-0.9-0.3
		c-0.4,0-0.7,0.1-1,0.3c-0.3,0.2-0.4,0.5-0.4,0.9c0,0.3,0.1,0.6,0.4,0.9C49,309.6,49.3,309.7,49.7,309.7z"/>
	<path class="st0" d="M71,313.5c0.4,0,0.7-0.1,1-0.4c0.3-0.3,0.4-0.5,0.4-0.9c0-0.4-0.1-0.7-0.4-0.9c-0.3-0.2-0.6-0.3-1-0.3
		c-0.4,0-0.7,0.1-0.9,0.3c-0.3,0.2-0.4,0.5-0.4,0.9c0,0.3,0.1,0.6,0.4,0.9C70.4,313.4,70.7,313.5,71,313.5z"/>
	<path class="st0" d="M72.8,312.2c0,0.3,0.1,0.6,0.4,0.9c0.3,0.3,0.6,0.4,1,0.4c0.4,0,0.7-0.1,0.9-0.4c0.3-0.3,0.4-0.5,0.4-0.9
		c0-0.4-0.1-0.7-0.4-0.9c-0.3-0.2-0.6-0.3-0.9-0.3c-0.4,0-0.7,0.1-1,0.3C73,311.5,72.8,311.8,72.8,312.2z"/>
	<path class="st0" d="M72.6,310.8c0.4,0,0.7-0.1,0.9-0.4c0.3-0.2,0.4-0.5,0.4-0.9c0-0.4-0.1-0.7-0.4-0.9c-0.3-0.2-0.6-0.4-0.9-0.4
		s-0.7,0.1-0.9,0.4c-0.3,0.2-0.4,0.6-0.4,0.9c0,0.4,0.1,0.7,0.4,0.9C71.9,310.7,72.3,310.8,72.6,310.8z"/>
	<path class="st0" d="M85.5,309.8c0,0.7,0,1.5,0,2.3s0,1.7,0,2.5c0,0.9,0,1.7,0,2.4c0,0.7,0,1.4,0,2c0,0.6,0,1,0,1.2
		c-0.3,0.3-0.6,0.4-0.9,0.6c-0.4,0.1-0.8,0.2-1.3,0.2c-0.5,0-1-0.1-1.5-0.3c-0.5-0.2-1-0.4-1.4-0.7c0.1-0.7,0.2-1.3,0.2-1.9
		c0-0.7-0.1-1.4-0.3-2.1c-0.2-0.6-0.5-1.2-0.9-1.6c-0.3,0.3-0.6,0.5-0.9,0.8c-0.3,0.3-0.6,0.5-0.9,0.8c0.2,0.2,0.3,0.5,0.5,0.9
		c0.1,0.4,0.2,0.8,0.2,1.3c0,0.6-0.1,1.3-0.4,2c-0.1,0.1-0.2,0.1-0.3,0.2c-0.1,0.1-0.3,0.2-0.4,0.3c-0.2,0.1-0.3,0.2-0.5,0.2
		c-0.2,0.1-0.3,0.1-0.5,0.1c-0.6,0-1-0.1-1.3-0.3c-0.3-0.2-0.5-0.4-0.7-0.6c0.2-0.7,0.3-1.4,0.3-2c0-0.6,0.1-1.1,0.1-1.5v-0.7
		c-0.4,0-0.8,0.1-1.2,0.1c-0.4,0-0.8,0.1-1.2,0.1v0.7c0,0.3,0,0.6,0,1c0,0.3-0.1,0.7-0.1,1c0,0.3-0.1,0.6-0.2,0.8
		c-0.1,0.2-0.2,0.4-0.3,0.5c-0.1,0.1-0.2,0.2-0.3,0.3c-0.1,0.1-0.3,0.2-0.4,0.3c-0.2,0.1-0.3,0.2-0.5,0.2c-0.2,0.1-0.3,0.1-0.4,0.1
		c-0.5,0-0.9-0.1-1.2-0.2c-0.3-0.1-0.5-0.3-0.8-0.7c0.1-0.1,0.1-0.2,0.2-0.5c0.1-0.2,0.1-0.5,0.2-0.9c0.1-0.3,0.1-0.7,0.1-1.1
		c0-0.4,0.1-0.8,0.1-1.2c-0.4,0-0.8,0.1-1.2,0.1c-0.4,0-0.8,0.1-1.2,0.1c0,0.1,0,0.2,0,0.3c0,0.2,0,0.3-0.1,0.6
		c0,0.2-0.1,0.5-0.1,0.7c0,0.2-0.1,0.5-0.1,0.7c0,0.1-0.1,0.3-0.1,0.5c0,0.2-0.1,0.4-0.2,0.6c-0.4,0.3-0.8,0.6-1.2,0.7
		c-0.4,0.1-0.7,0.1-1,0.2c0,0-0.1,0-0.1,0h-0.4c-0.5,0-0.9,0-1.2-0.1c-0.3-0.1-0.6-0.2-0.9-0.3c0-0.4,0.1-0.9,0.1-1.3
		c0-0.4,0-0.9,0-1.4c0-0.4,0-0.9,0-1.4c0-0.5-0.1-1-0.1-1.5l-2.4,0.6c0,0.5,0.1,0.9,0.1,1.3c0,0.3,0,0.7,0,1.2c0,1.3,0,2.5-0.1,3.4
		c-0.1,0.9-0.2,1.7-0.5,2.4c-0.3,0.6-0.7,1.1-1.3,1.5c-0.6,0.3-1.5,0.6-2.6,0.7l0.4,2.4c1.3-0.2,2.3-0.5,3.1-0.9
		c0.8-0.4,1.5-0.9,2-1.6c0.3-0.4,0.5-0.8,0.7-1.3c0.2-0.5,0.3-1,0.4-1.6c0.2,0.1,0.4,0.1,0.7,0.2c0.2,0,0.5,0.1,0.7,0.1
		c0.3,0,0.5,0,0.7,0.1c0.2,0,0.4,0,0.6,0c0,0,0,0,0,0c0,0,0,0,0,0s0,0,0,0c0,0,0,0,0,0c0.7,0,1.3-0.1,1.9-0.3
		c0.6-0.2,1.1-0.5,1.6-0.8c0.3,0.2,0.7,0.5,1.2,0.8c0.5,0.3,1.2,0.4,1.9,0.4c0.4,0,0.7,0,1.1-0.1c0.3-0.1,0.6-0.2,0.9-0.3
		c0.3-0.1,0.5-0.3,0.7-0.4c0.2-0.1,0.3-0.2,0.4-0.3c0.3,0.2,0.7,0.5,1.2,0.8c0.5,0.3,1.2,0.4,1.9,0.4c0.7,0,1.4-0.2,1.9-0.5
		c0.6-0.3,1-0.6,1.4-1c0.2,0.2,0.4,0.3,0.7,0.5c0.3,0.2,0.6,0.3,0.9,0.4c0.3,0.1,0.7,0.2,1.1,0.3c0.4,0.1,0.8,0.1,1.3,0.1
		c0.5,0,1-0.1,1.5-0.2c0.5-0.1,0.9-0.3,1.3-0.5c0.4-0.2,0.8-0.5,1.1-0.9c0.3-0.3,0.5-0.8,0.7-1.2c0-2.2,0-4.3,0-6.4
		c0-2.1,0-4.2,0.1-6.3h-2.3C85.5,308.4,85.5,309,85.5,309.8z"/>
	<rect x="91.6" y="307.9" class="st0" width="2.3" height="15.5"/>
	<path class="st0" d="M107.7,311.6c0.4,0,0.7-0.1,0.9-0.4c0.3-0.3,0.4-0.5,0.4-0.9c0-0.4-0.1-0.7-0.4-0.9c-0.3-0.2-0.6-0.3-0.9-0.3
		c-0.4,0-0.7,0.1-1,0.3c-0.3,0.2-0.4,0.5-0.4,0.9c0,0.3,0.1,0.6,0.4,0.9C107,311.5,107.3,311.6,107.7,311.6z"/>
	<path class="st0" d="M104.5,311.6c0.4,0,0.7-0.1,1-0.4c0.3-0.3,0.4-0.5,0.4-0.9c0-0.4-0.1-0.7-0.4-0.9c-0.3-0.2-0.6-0.3-1-0.3
		c-0.4,0-0.7,0.1-0.9,0.3c-0.3,0.2-0.4,0.5-0.4,0.9c0,0.3,0.1,0.6,0.4,0.9C103.8,311.5,104.2,311.6,104.5,311.6z"/>
	<path class="st0" d="M116.6,311.7c0.4,0,0.7-0.1,1-0.4c0.3-0.3,0.4-0.5,0.4-0.9c0-0.4-0.1-0.7-0.4-0.9c-0.3-0.2-0.6-0.3-1-0.3
		c-0.4,0-0.7,0.1-0.9,0.3c-0.3,0.2-0.4,0.5-0.4,0.9c0,0.3,0.1,0.6,0.4,0.9C115.9,311.6,116.2,311.7,116.6,311.7z"/>
	<path class="st0" d="M119.7,311.7c0.4,0,0.7-0.1,0.9-0.4c0.3-0.3,0.4-0.5,0.4-0.9c0-0.4-0.1-0.7-0.4-0.9c-0.3-0.2-0.6-0.3-0.9-0.3
		c-0.4,0-0.7,0.1-1,0.3c-0.3,0.2-0.4,0.5-0.4,0.9c0,0.3,0.1,0.6,0.4,0.9C119,311.6,119.3,311.7,119.7,311.7z"/>
	<path class="st0" d="M134.6,311.5c0.4,0,0.7-0.1,0.9-0.4c0.3-0.3,0.4-0.5,0.4-0.9c0-0.4-0.1-0.7-0.4-0.9c-0.3-0.2-0.6-0.4-0.9-0.4
		c-0.4,0-0.7,0.1-0.9,0.4c-0.3,0.2-0.4,0.5-0.4,0.9c0,0.3,0.1,0.6,0.4,0.9C134,311.4,134.3,311.5,134.6,311.5z"/>
	<path class="st0" d="M145.6,313.8c0.4,0,0.7-0.1,0.9-0.4c0.3-0.3,0.4-0.6,0.4-0.9c0-0.4-0.1-0.7-0.4-0.9c-0.3-0.2-0.6-0.4-0.9-0.4
		c-0.4,0-0.7,0.1-0.9,0.4c-0.3,0.2-0.4,0.5-0.4,0.9c0,0.3,0.1,0.6,0.4,0.9C144.9,313.6,145.3,313.8,145.6,313.8z"/>
	<path class="st0" d="M166.3,309.8c0,0.7,0,1.5,0,2.3s0,1.7,0,2.5c0,0.9,0,1.7,0,2.4c0,0.7,0,1.4,0,2c0,0.6,0,1,0,1.2
		c-0.3,0.3-0.6,0.4-0.9,0.6c-0.4,0.1-0.8,0.2-1.3,0.2c0,0,0,0,0,0c0,0,0,0,0,0c-0.4,0-0.8-0.1-1.3-0.2c-0.5-0.1-1-0.3-1.4-0.6
		c0.2-0.6,0.3-1.2,0.3-2c0-0.6-0.1-1.2-0.3-1.7c-0.2-0.6-0.5-1.1-0.9-1.5c-0.4-0.4-0.9-0.8-1.4-1.1c-0.6-0.3-1.2-0.4-1.8-0.4
		c-0.5,0-1,0.1-1.5,0.3c-0.5,0.2-0.9,0.4-1.3,0.7c-0.4,0.3-0.8,0.7-1.1,1.1c-0.3,0.4-0.5,0.9-0.7,1.4c-0.1,0.2-0.1,0.5-0.2,0.9
		c-0.1,0.4-0.2,0.8-0.3,1.3c-0.1,0.4-0.3,0.8-0.4,1.2c-0.2,0.3-0.4,0.5-0.6,0.6c-0.3,0.1-0.5,0.1-0.7,0.1c-0.2,0-0.4,0-0.5,0
		c-0.4,0-0.9-0.1-1.4-0.2c-0.5-0.1-1-0.3-1.4-0.6c0.1-0.4,0.2-0.8,0.2-1.3c0.1-0.5,0.1-1.1,0.1-1.9c0-0.6,0-1.2-0.1-1.8
		c-0.4,0-0.8,0.1-1.2,0.1c-0.4,0-0.8,0.1-1.2,0.1c0,0.3,0,0.5,0,0.8c0,0.3,0,0.5,0,0.7c0,0.7,0,1.3,0,1.7c0,0.4-0.1,0.8-0.2,1.1
		c-0.1,0.3-0.3,0.5-0.5,0.6c-0.2,0.2-0.6,0.3-1,0.4l-0.8,0.1c-0.2,0-0.5,0-0.8-0.1c-0.3-0.1-0.6-0.2-0.9-0.3
		c-0.3-0.1-0.6-0.2-0.9-0.4c-0.3-0.1-0.5-0.3-0.8-0.4c0.4-1.3,0.6-2.3,0.6-3.1c0-1.2-0.4-2.1-1.1-2.6c-0.7-0.5-1.7-0.8-2.9-0.8
		c-1.1,0-2.2,0.3-3.3,0.8c-1.1,0.5-2.1,1.3-2.9,2.1v-8.2h-2.4V321h-1.6h0h-0.6c-0.5,0-0.9-0.1-1.2-0.3c-0.3-0.2-0.6-0.4-0.8-0.5
		c0.1-0.4,0.2-0.8,0.2-1.1c0-0.4,0-0.7,0-1.1c0-0.7-0.1-1.4-0.3-2c-0.2-0.6-0.5-1.1-0.9-1.5c-0.4-0.4-0.8-0.7-1.4-0.9
		c-0.5-0.2-1.1-0.3-1.8-0.3c-0.6,0-1.3,0.1-1.9,0.3c-0.6,0.2-1.2,0.5-1.7,1c-0.5,0.4-0.9,1-1.2,1.6c-0.3,0.6-0.5,1.4-0.5,2.2
		c0,0.2,0,0.3,0,0.5c0,0.2,0,0.3,0.1,0.5c0,0.1,0,0.1,0.1,0.2c0,0.1,0.1,0.1,0.2,0.3c0.1,0.1,0.2,0.3,0.4,0.5
		c0.2,0.2,0.4,0.5,0.7,0.8h-2.8c0,0,0,0,0,0c0,0,0,0,0,0h-0.4c-0.5,0-0.9-0.1-1.2-0.2c-0.3-0.2-0.5-0.4-0.6-0.6
		c-0.1-0.3-0.2-0.6-0.2-1c0-0.4,0-0.8,0-1.3c0-0.1,0-0.4,0-0.7c0-0.4,0-0.7,0-1.1c0-0.4,0-0.8,0-1.2c0-0.4,0-0.7,0-0.9
		c0-0.2,0-0.4,0-0.5c0-0.2,0-0.3,0-0.5c-0.4,0-0.8,0-1.2,0c-0.4,0-0.8,0-1.2,0v1.3c-0.2,0-0.6,0-1.1,0.1c-0.5,0.1-1,0.2-1.6,0.4
		c-0.6,0.2-1.1,0.5-1.7,0.9c-0.5,0.4-1,0.9-1.4,1.6c-0.2,0.2-0.3,0.5-0.5,0.9c-0.1,0.4-0.2,0.8-0.2,1.2c0,0.6,0.1,1.2,0.4,1.7
		c0.3,0.5,0.6,0.9,1,1.2c0.4,0.3,0.7,0.5,1.1,0.7c0.4,0.2,0.6,0.3,0.8,0.3c0.2,0.1,0.4,0.1,0.7,0.1c0.5,0,1,0,1.5-0.1
		c0.5-0.1,0.9-0.2,1.4-0.3l-0.6-2.4c-0.4,0.2-0.8,0.3-1.2,0.4c-0.4,0.1-0.8,0.1-1.2,0c-0.4-0.1-0.7-0.2-1-0.4
		c-0.3-0.2-0.4-0.5-0.4-0.9c0-0.5,0.1-1,0.4-1.3c0.2-0.4,0.6-0.7,1-0.9c0.4-0.2,0.8-0.4,1.3-0.5c0.5-0.1,0.9-0.2,1.3-0.3
		c0,0.2,0,0.5,0,0.7c0,0.3,0,0.5,0,0.8c0,0.3,0,0.5,0,0.7c0,0.2,0.1,0.5,0.1,0.9c0.1,0.8,0.3,1.5,0.7,2c0.4,0.5,0.9,0.8,1.4,1.1
		c0.5,0.2,1,0.4,1.4,0.4c0.4,0.1,0.7,0.1,0.9,0.1l0.3,0h4.7c1.4,0,2.5-0.1,3.3-0.2c0.8-0.1,1.4-0.4,1.7-0.9c0.3,0.2,0.6,0.3,0.8,0.4
		c0.3,0.1,0.5,0.2,0.8,0.3c0.3,0.1,0.6,0.2,0.9,0.2c0.3,0,0.7,0.1,1.2,0.1c0,0,0,0,0,0h7.4c0.7,0,1.3,0,1.8-0.1
		c0.5-0.1,0.9-0.2,1.3-0.3c0.4-0.2,0.7-0.4,1.1-0.6c0.3-0.2,0.7-0.5,1-0.7c0.2,0.2,0.5,0.3,0.8,0.5c0.3,0.2,0.6,0.4,1,0.6
		c0.4,0.2,0.8,0.3,1.2,0.4c0.4,0.1,0.8,0.2,1.3,0.2c0,0,0,0,0.1,0c0,0,0,0,0,0c0,0,0,0,0,0c0,0,0.1,0,0.1,0c0.2,0,0.4,0,0.7-0.1
		c0.3-0.1,0.6-0.2,1-0.3c0.3-0.1,0.6-0.2,0.9-0.4c0.3-0.1,0.6-0.3,0.8-0.4c0.2,0.1,0.4,0.3,0.7,0.4c0.3,0.1,0.5,0.3,0.9,0.4
		c0.3,0.1,0.7,0.2,1.1,0.3c0.4,0.1,0.9,0.1,1.4,0.1c0.3,0,0.5,0,0.7,0c0.2,0,0.4,0,0.6-0.1c0.2,0,0.3-0.1,0.5-0.1
		c0.2,0,0.4-0.1,0.6-0.2c0.2-0.1,0.4-0.2,0.6-0.4c0.2-0.2,0.4-0.4,0.7-0.7c0.5,0.2,1,0.4,1.4,0.7c0.5,0.2,1,0.5,1.4,0.7
		c0.8,0,1.5-0.1,2.1-0.3s1.1-0.5,1.6-0.8c0.2,0.1,0.4,0.3,0.7,0.4c0.3,0.1,0.6,0.3,0.9,0.4c0.3,0.1,0.7,0.2,1.1,0.3
		c0.4,0.1,0.9,0.1,1.4,0.1c0,0,0,0,0,0c0,0,0,0,0,0c0.5,0,1-0.1,1.5-0.2c0.5-0.1,0.9-0.3,1.3-0.5c0.4-0.2,0.8-0.5,1.1-0.9
		c0.3-0.3,0.5-0.8,0.7-1.2c0-2.2,0-4.3,0-6.4c0-2.1,0-4.2,0.1-6.3h-2.3C166.4,308.4,166.4,309,166.3,309.8z M120.1,319.7
		c-0.2,0.5-0.3,0.9-0.4,1c-0.2,0.1-0.5,0.1-0.8,0.1c-0.3,0-0.7,0-1.1,0.1c-0.1-0.1-0.2-0.2-0.4-0.4c-0.2-0.2-0.4-0.4-0.6-0.6
		c-0.2-0.2-0.4-0.5-0.6-0.7c-0.2-0.3-0.4-0.5-0.5-0.7c0-0.5,0.1-0.9,0.2-1.3c0.2-0.4,0.4-0.7,0.6-0.9c0.2-0.2,0.5-0.4,0.9-0.5
		c0.3-0.1,0.7-0.2,1-0.2c0.3,0,0.5,0,0.8,0.1c0.3,0,0.5,0.1,0.7,0.3c0.2,0.2,0.4,0.4,0.5,0.6c0.1,0.3,0.2,0.6,0.2,1.1
		C120.4,318.5,120.3,319.2,120.1,319.7z M136.9,317.8c-0.1,0.5-0.3,1.1-0.5,1.9l-1.7,1c-0.5,0.1-1.1,0.2-1.9,0.2
		c-0.8,0-1.6,0.1-2.5,0.1c-0.1,0-0.3,0-0.5,0c-0.2,0-0.4,0-0.6,0c0.1-0.2,0.1-0.4,0.2-0.6c0.1-0.2,0.2-0.5,0.3-0.7
		c0.1-0.2,0.2-0.5,0.3-0.7c0.1-0.2,0.2-0.4,0.3-0.5c0.3-0.4,0.6-0.8,1-1.1c0.4-0.4,0.9-0.7,1.3-0.9c0.5-0.3,1-0.5,1.4-0.6
		c0.5-0.2,1-0.2,1.4-0.2c0.4,0,0.8,0.1,1.1,0.2c0.3,0.1,0.5,0.4,0.5,0.8C137.1,317,137,317.3,136.9,317.8z M158.6,320.3
		c-0.5,0.4-1.1,0.6-1.9,0.6c-0.1,0-0.3-0.1-0.6-0.2c-0.3-0.1-0.5-0.3-0.8-0.4c-0.3-0.1-0.5-0.3-0.7-0.4c-0.2-0.1-0.4-0.2-0.4-0.2
		c0.1-0.3,0.2-0.7,0.2-1c0.1-0.4,0.2-0.7,0.3-1c0.1-0.2,0.2-0.5,0.3-0.7c0.1-0.2,0.2-0.4,0.4-0.6c0.2-0.2,0.4-0.3,0.6-0.4
		c0.3-0.1,0.6-0.2,1-0.2c0.4,0,0.7,0.1,1,0.3c0.3,0.2,0.5,0.4,0.7,0.6c0.2,0.2,0.3,0.5,0.4,0.8c0.1,0.3,0.1,0.5,0.1,0.7
		C159.3,319.1,159.1,319.8,158.6,320.3z"/>
	<path class="st0" d="M179.8,324.8c-0.4,0-0.7,0.1-0.9,0.4c-0.3,0.2-0.4,0.5-0.4,0.9c0,0.3,0.1,0.6,0.4,0.9c0.3,0.3,0.6,0.4,0.9,0.4
		s0.7-0.1,0.9-0.4c0.3-0.3,0.4-0.5,0.4-0.9c0-0.4-0.1-0.7-0.4-0.9C180.4,324.9,180.1,324.8,179.8,324.8z"/>
	<path class="st0" d="M182.3,314.1c-0.4,0-0.7,0.1-1.1,0.1c-0.4,0-0.8,0.1-1.1,0.1c0.1,0.5,0.1,1,0.1,1.4c0,0.5,0.1,0.9,0.1,1.3
		c0,0.7,0,1.3-0.1,1.8c0,0.5-0.1,0.8-0.2,1.1c-0.1,0.3-0.3,0.5-0.5,0.6c-0.2,0.1-0.6,0.2-1,0.3l-0.9,0.1c0,0,0,0,0,0
		c-0.1,0-0.1,0-0.2,0c-0.1,0-0.2,0-0.3,0c-0.3,0-0.5,0-0.8-0.1c-0.3-0.1-0.5-0.1-0.7-0.3c-0.2-0.1-0.4-0.3-0.5-0.5
		c-0.1-0.2-0.2-0.5-0.2-0.8l-0.2-11.4h-2.3c0,0.1,0,0.4,0,0.9c0,0.5,0,1.2,0,2c0,0.8,0,1.6,0,2.5c0,0.9,0,1.7,0,2.4
		c0,0.7,0,1.4,0,1.9c0,0.5,0,0.7,0,0.7c0,1.3,0.1,2.2,0.4,2.9c0.3,0.7,0.7,1.2,1.1,1.5c0.4,0.3,0.9,0.5,1.5,0.6
		c0.5,0.1,1.1,0.1,1.6,0.1h0.5c0,0,0,0,0,0c0.5,0,0.9-0.1,1.4-0.2c0.5-0.1,0.9-0.3,1.3-0.5c0.4-0.2,0.8-0.5,1.1-0.8
		c0.3-0.3,0.6-0.6,0.7-1c0.2-0.6,0.3-1.3,0.4-1.8c0.1-0.6,0.1-1.3,0.1-2.1c0-0.5,0-1.1-0.1-1.6C182.5,315,182.4,314.5,182.3,314.1z"
		/>
	<path class="st0" d="M193.2,311.6c0.4,0,0.7-0.1,1-0.4c0.3-0.3,0.4-0.5,0.4-0.9c0-0.4-0.1-0.7-0.4-0.9c-0.3-0.2-0.6-0.3-1-0.3
		c-0.4,0-0.7,0.1-0.9,0.3c-0.3,0.2-0.4,0.5-0.4,0.9c0,0.3,0.1,0.6,0.4,0.9C192.5,311.5,192.8,311.6,193.2,311.6z"/>
	<path class="st0" d="M196.4,311.6c0.4,0,0.7-0.1,0.9-0.4c0.3-0.3,0.4-0.5,0.4-0.9c0-0.4-0.1-0.7-0.4-0.9c-0.3-0.2-0.6-0.3-0.9-0.3
		c-0.4,0-0.7,0.1-1,0.3c-0.3,0.2-0.4,0.5-0.4,0.9c0,0.3,0.1,0.6,0.4,0.9C195.7,311.5,196,311.6,196.4,311.6z"/>
	<path class="st0" d="M200.4,323.4c0.5,0,0.9-0.1,1.4-0.2c0.5-0.1,0.9-0.3,1.3-0.5c0.4-0.2,0.8-0.5,1.1-0.8c0.3-0.3,0.6-0.6,0.7-1
		c0.2-0.6,0.3-1.3,0.4-1.8c0.1-0.6,0.1-1.3,0.1-2.1c0-0.5,0-1.1-0.1-1.6c0-0.5-0.1-1-0.2-1.4c-0.4,0-0.7,0.1-1.1,0.1
		c-0.4,0-0.8,0.1-1.1,0.1c0.1,0.5,0.1,1,0.1,1.4c0,0.5,0.1,0.9,0.1,1.3c0,0.7,0,1.3-0.1,1.8c0,0.5-0.1,0.8-0.2,1.1
		c-0.1,0.3-0.3,0.5-0.5,0.6c-0.2,0.1-0.6,0.2-1,0.3l-0.9,0.1c0,0,0,0,0,0c0,0,0,0,0,0H200c-0.5,0-0.9-0.1-1.2-0.2
		c-0.3-0.2-0.5-0.4-0.6-0.6c-0.1-0.3-0.2-0.6-0.2-1c0-0.4,0-0.8,0-1.3c0-0.1,0-0.4,0-0.7c0-0.4,0-0.7,0-1.1c0-0.4,0-0.8,0-1.2
		c0-0.4,0-0.7,0-0.9c0-0.2,0-0.4,0-0.5c0-0.2,0-0.3,0-0.5c-0.4,0-0.8,0-1.2,0c-0.4,0-0.8,0-1.2,0v1.3c-0.2,0-0.6,0-1.1,0.1
		c-0.5,0.1-1,0.2-1.6,0.4c-0.6,0.2-1.1,0.5-1.7,0.9c-0.6,0.4-1,0.9-1.4,1.6c-0.2,0.2-0.3,0.5-0.5,0.9c-0.1,0.4-0.2,0.8-0.2,1.2
		c0,0.6,0.1,1.2,0.4,1.7c0.3,0.5,0.6,0.9,1,1.2c0.4,0.3,0.7,0.5,1.1,0.7c0.4,0.2,0.6,0.3,0.8,0.3c0.2,0.1,0.4,0.1,0.7,0.1
		c0.5,0,1,0,1.5-0.1c0.5-0.1,0.9-0.2,1.4-0.3l-0.6-2.4c-0.4,0.2-0.8,0.3-1.2,0.4c-0.4,0.1-0.8,0.1-1.2,0c-0.4-0.1-0.7-0.2-1-0.4
		c-0.3-0.2-0.4-0.5-0.4-0.9c0-0.5,0.1-1,0.4-1.3c0.2-0.4,0.6-0.7,1-0.9c0.4-0.2,0.8-0.4,1.3-0.5c0.5-0.1,0.9-0.2,1.3-0.3
		c0,0.2,0,0.5,0,0.7c0,0.3,0,0.5,0,0.8c0,0.3,0,0.5,0,0.7c0,0.2,0.1,0.5,0.1,0.9c0.1,0.8,0.3,1.5,0.7,2c0.4,0.5,0.9,0.8,1.4,1.1
		c0.5,0.2,1,0.4,1.4,0.4c0.4,0.1,0.7,0.1,0.9,0.1L200.4,323.4z"/>
	<path class="st0" d="M201.3,324.8c-0.4,0-0.7,0.1-0.9,0.3c-0.3,0.2-0.4,0.5-0.4,0.9c0,0.3,0.1,0.6,0.4,0.9c0.3,0.3,0.6,0.4,0.9,0.4
		c0.4,0,0.7-0.1,1-0.4c0.3-0.3,0.4-0.5,0.4-0.9c0-0.4-0.1-0.7-0.4-0.9C202.1,325,201.7,324.8,201.3,324.8z"/>
	<path class="st0" d="M204.5,324.8c-0.4,0-0.7,0.1-1,0.3c-0.3,0.2-0.4,0.5-0.4,0.9c0,0.3,0.1,0.6,0.4,0.9c0.3,0.3,0.6,0.4,1,0.4
		c0.4,0,0.7-0.1,0.9-0.4c0.3-0.3,0.4-0.5,0.4-0.9c0-0.4-0.1-0.7-0.4-0.9C205.2,325,204.9,324.8,204.5,324.8z"/>
	<path class="st0" d="M225.3,312.2c0,0.3,0.1,0.6,0.4,0.9c0.3,0.3,0.6,0.4,1,0.4c0.4,0,0.7-0.1,0.9-0.4c0.3-0.3,0.4-0.5,0.4-0.9
		c0-0.4-0.1-0.7-0.4-0.9c-0.3-0.2-0.6-0.3-0.9-0.3c-0.4,0-0.7,0.1-1,0.3C225.4,311.5,225.3,311.8,225.3,312.2z"/>
	<path class="st0" d="M223.5,313.5c0.4,0,0.7-0.1,1-0.4c0.3-0.3,0.4-0.5,0.4-0.9c0-0.4-0.1-0.7-0.4-0.9c-0.3-0.2-0.6-0.3-1-0.3
		c-0.4,0-0.7,0.1-0.9,0.3c-0.3,0.2-0.4,0.5-0.4,0.9c0,0.3,0.1,0.6,0.4,0.9C222.8,313.4,223.1,313.5,223.5,313.5z"/>
	<path class="st0" d="M225,310.8c0.4,0,0.7-0.1,0.9-0.4c0.3-0.2,0.4-0.5,0.4-0.9c0-0.4-0.1-0.7-0.4-0.9c-0.3-0.2-0.6-0.4-0.9-0.4
		c-0.4,0-0.7,0.1-0.9,0.4c-0.3,0.2-0.4,0.6-0.4,0.9c0,0.4,0.1,0.7,0.4,0.9C224.4,310.7,224.7,310.8,225,310.8z"/>
	<path class="st0" d="M239.4,324.8c-0.4,0-0.7,0.1-0.9,0.4c-0.3,0.2-0.4,0.5-0.4,0.9c0,0.3,0.1,0.6,0.4,0.9c0.3,0.3,0.6,0.4,0.9,0.4
		s0.7-0.1,0.9-0.4c0.3-0.3,0.4-0.5,0.4-0.9c0-0.4-0.1-0.7-0.4-0.9C240.1,324.9,239.8,324.8,239.4,324.8z"/>
	<path class="st0" d="M245.5,309.8c0,0.7,0,1.5,0,2.3s0,1.7,0,2.5c0,0.9,0,1.7,0,2.4c0,0.7,0,1.4,0,2c0,0.6,0,1,0,1.2
		c-0.3,0.3-0.6,0.4-0.9,0.6c-0.4,0.1-0.8,0.2-1.3,0.2c-0.4,0-0.9-0.1-1.4-0.2c-0.5-0.1-1-0.3-1.4-0.6c0.1-0.4,0.2-0.8,0.2-1.3
		c0.1-0.5,0.1-1.1,0.1-1.9c0-0.6,0-1.2-0.1-1.8c-0.4,0-0.8,0.1-1.2,0.1c-0.4,0-0.8,0.1-1.2,0.1c0,0.3,0,0.5,0,0.8c0,0.3,0,0.5,0,0.7
		c0,0.7,0,1.3,0,1.7c0,0.4-0.1,0.8-0.2,1.1c-0.1,0.3-0.3,0.5-0.5,0.6c-0.2,0.2-0.6,0.3-1,0.4l-0.9,0.1c-0.5,0-1-0.1-1.5-0.3
		c-0.5-0.2-1-0.4-1.4-0.7c0.1-0.7,0.2-1.3,0.2-1.9c0-0.7-0.1-1.4-0.3-2.1c-0.2-0.6-0.5-1.2-0.9-1.6c-0.3,0.3-0.6,0.5-0.9,0.8
		c-0.3,0.3-0.6,0.5-0.9,0.8c0.2,0.2,0.3,0.5,0.5,0.9c0.1,0.4,0.2,0.8,0.2,1.3c0,0.6-0.1,1.3-0.4,2c-0.1,0.1-0.2,0.1-0.3,0.2
		c-0.1,0.1-0.3,0.2-0.4,0.3c-0.2,0.1-0.3,0.2-0.5,0.2c-0.2,0.1-0.3,0.1-0.5,0.1c-0.6,0-1-0.1-1.3-0.3c-0.3-0.2-0.5-0.4-0.7-0.6
		c0.2-0.7,0.3-1.4,0.3-2c0-0.6,0.1-1.1,0.1-1.5v-0.7c-0.4,0-0.8,0.1-1.2,0.1c-0.4,0-0.8,0.1-1.2,0.1v0.7c0,0.3,0,0.6,0,1
		c0,0.3-0.1,0.7-0.1,1c0,0.3-0.1,0.6-0.2,0.8c-0.1,0.2-0.2,0.4-0.3,0.5c-0.1,0.1-0.2,0.2-0.3,0.3c-0.1,0.1-0.3,0.2-0.4,0.3
		c-0.2,0.1-0.3,0.2-0.5,0.2c-0.2,0.1-0.3,0.1-0.4,0.1c-0.5,0-0.9-0.1-1.2-0.2c-0.3-0.1-0.5-0.3-0.8-0.7c0.1-0.1,0.1-0.2,0.2-0.5
		c0.1-0.2,0.1-0.5,0.2-0.9c0.1-0.3,0.1-0.7,0.1-1.1c0-0.4,0.1-0.8,0.1-1.2c-0.4,0-0.8,0.1-1.2,0.1c-0.4,0-0.8,0.1-1.2,0.1
		c0,0.1,0,0.2,0,0.3c0,0.2,0,0.3-0.1,0.6c0,0.2-0.1,0.5-0.1,0.7c0,0.2-0.1,0.5-0.1,0.7c0,0.1-0.1,0.3-0.1,0.5c0,0.2-0.1,0.4-0.2,0.6
		c-0.4,0.3-0.8,0.6-1.2,0.7c-0.4,0.1-0.7,0.1-1,0.2c0,0-0.1,0-0.1,0h-0.4c-0.5,0-0.9,0-1.2-0.1c-0.3-0.1-0.6-0.2-0.9-0.3
		c0-0.4,0.1-0.9,0.1-1.3c0-0.4,0-0.9,0-1.4c0-0.4,0-0.9,0-1.4c0-0.5-0.1-1-0.1-1.5l-2.4,0.6c0,0.5,0.1,0.9,0.1,1.3
		c0,0.3,0,0.7,0,1.2c0,1.3,0,2.5-0.1,3.4c-0.1,0.9-0.2,1.7-0.5,2.4c-0.3,0.6-0.7,1.1-1.3,1.5c-0.6,0.3-1.5,0.6-2.6,0.7l0.4,2.4
		c1.3-0.2,2.3-0.5,3.1-0.9c0.8-0.4,1.5-0.9,2-1.6c0.3-0.4,0.5-0.8,0.7-1.3c0.2-0.5,0.3-1,0.4-1.6c0.2,0.1,0.4,0.1,0.7,0.2
		c0.2,0,0.5,0.1,0.7,0.1c0.3,0,0.5,0,0.7,0.1c0.2,0,0.4,0,0.6,0c0,0,0,0,0,0c0,0,0,0,0,0s0,0,0,0c0,0,0,0,0,0c0.7,0,1.3-0.1,1.9-0.3
		c0.6-0.2,1.1-0.5,1.6-0.8c0.3,0.2,0.7,0.5,1.2,0.8c0.5,0.3,1.2,0.4,1.9,0.4c0.4,0,0.7,0,1.1-0.1c0.3-0.1,0.6-0.2,0.9-0.3
		c0.3-0.1,0.5-0.3,0.7-0.4c0.2-0.1,0.3-0.2,0.4-0.3c0.3,0.2,0.7,0.5,1.2,0.8c0.5,0.3,1.2,0.4,1.9,0.4c0.7,0,1.4-0.2,1.9-0.5
		c0.6-0.3,1-0.6,1.4-1c0.2,0.2,0.4,0.3,0.7,0.5c0.3,0.2,0.6,0.3,0.9,0.4c0.3,0.1,0.7,0.2,1.1,0.3c0.4,0.1,0.8,0.1,1.3,0.1
		c0.2,0,0.5,0,0.8-0.1c0.3-0.1,0.6-0.2,1-0.3c0.3-0.1,0.6-0.2,0.9-0.4c0.3-0.1,0.6-0.3,0.8-0.4c0.2,0.1,0.4,0.3,0.7,0.4
		c0.3,0.1,0.5,0.3,0.9,0.4c0.3,0.1,0.7,0.2,1.1,0.3c0.4,0.1,0.9,0.1,1.4,0.1c0.5,0,1-0.1,1.5-0.2c0.5-0.1,0.9-0.3,1.3-0.5
		c0.4-0.2,0.8-0.5,1.1-0.9c0.3-0.3,0.5-0.8,0.7-1.2c0-2.2,0-4.3,0-6.4c0-2.1,0-4.2,0.1-6.3h-2.3C245.5,308.4,245.5,309,245.5,309.8z
		"/>
	<rect x="251.6" y="307.9" class="st0" width="2.3" height="15.5"/>
	<path class="st0" d="M268.8,317.1c-0.2-0.4-0.4-0.7-0.7-1.2c-0.3-0.4-0.6-0.8-1-1.2c-0.4-0.4-0.8-0.8-1.3-1.2
		c-0.5-0.4-1.1-0.7-1.7-1l-1,2.2c0.8,0.3,1.5,0.7,2,1.3c0.5,0.5,1,1.1,1.3,1.7c0.3,0.6,0.6,1.1,0.7,1.6c0.1,0.5,0.2,0.9,0.2,1.1h0
		c-0.1,0-0.2,0-0.3,0.1c-0.2,0.1-0.4,0.1-0.8,0.2c-0.3,0.1-0.8,0.1-1.4,0.2c-0.6,0.1-1.3,0.1-2.1,0.1c-0.2,0-0.4,0-0.5,0
		c-0.1,0-0.3,0-0.4,0c-0.1,0-0.2,0-0.4,0c-0.1,0-0.3,0-0.6-0.1c0,0.4-0.1,0.8-0.1,1.2c0,0.4-0.1,0.8-0.1,1.2c0.3,0,0.5,0,0.6,0
		c0.2,0,0.3,0,0.5,0c0.2,0,0.3,0,0.5,0c0.2,0,0.3,0,0.5,0c0.4,0,0.8,0,1.3,0c0.5,0,1.1-0.1,1.6-0.2c0.2,0,0.5-0.1,1-0.2
		c0.4-0.1,0.9-0.2,1.3-0.4c0.4-0.2,0.8-0.5,1.1-0.8c0.3-0.4,0.5-0.8,0.5-1.4c0-0.4-0.1-0.9-0.3-1.5
		C269.3,318.3,269.1,317.7,268.8,317.1z"/>
	<path class="st0" d="M277.2,314.4l-2.4,0.5c0,0.4,0,0.8,0.1,1.2c0,0.3,0.1,0.7,0.1,1s0,0.7,0.1,1c0,0.3,0,0.7,0,1.1
		c0,1.3-0.1,2.4-0.2,3.2c-0.2,0.8-0.3,1.4-0.5,1.9c-0.1,0.1-0.2,0.3-0.3,0.5c-0.1,0.2-0.3,0.4-0.6,0.6c-0.3,0.2-0.7,0.4-1.1,0.5
		c-0.5,0.2-1.1,0.3-1.8,0.4l0.4,2.4c2.4-0.4,4.1-1.2,5.1-2.6c0.4-0.5,0.6-1,0.8-1.6c0.2-0.6,0.3-1.2,0.4-1.8
		c0.1-0.6,0.1-1.3,0.2-1.9c0-0.6,0-1.2,0-1.8c0-0.8,0-1.5-0.1-2.3C277.3,315.9,277.3,315.2,277.2,314.4z"/>
	<rect x="281.2" y="307.9" class="st0" width="2.3" height="15.5"/>
	<path class="st0" d="M313.6,309.8c0,0.7,0,1.5,0,2.3s0,1.7,0,2.5c0,0.9,0,1.7,0,2.4c0,0.7,0,1.4,0,2c0,0.6,0,1,0,1.2
		c-0.3,0.3-0.6,0.4-0.9,0.6c-0.4,0.1-0.8,0.2-1.3,0.2c0,0,0,0,0,0c0,0,0,0,0,0c-0.4,0-0.8-0.1-1.3-0.2c-0.5-0.1-1-0.3-1.4-0.6
		c0.2-0.6,0.3-1.2,0.3-2c0-0.6-0.1-1.2-0.3-1.7c-0.2-0.6-0.5-1.1-0.9-1.5c-0.4-0.4-0.9-0.8-1.4-1.1c-0.6-0.3-1.2-0.4-1.8-0.4
		c-0.5,0-1,0.1-1.5,0.3c-0.5,0.2-0.9,0.4-1.3,0.7c-0.4,0.3-0.8,0.7-1.1,1.1c-0.3,0.4-0.5,0.9-0.7,1.4c-0.1,0.2-0.1,0.5-0.2,0.9
		c-0.1,0.4-0.2,0.8-0.3,1.3c-0.1,0.4-0.3,0.8-0.4,1.2c-0.2,0.3-0.4,0.5-0.6,0.6c-0.3,0.1-0.5,0.1-0.7,0.1c-0.2,0-0.4,0-0.5,0
		c0,0,0,0,0,0c0,0,0,0,0,0h-1.7c0-0.2,0-0.5,0-0.7c0-0.2,0-0.5,0-0.7c0-0.7-0.1-1.4-0.3-2.1c-0.2-0.7-0.5-1.3-0.9-1.8
		c-0.4-0.5-0.9-0.9-1.5-1.3c-0.6-0.3-1.2-0.5-2-0.5c-0.6,0-1.2,0.1-1.8,0.3c-0.6,0.2-1.1,0.6-1.5,1c-0.4,0.4-0.8,0.9-1.1,1.5
		c-0.3,0.6-0.4,1.3-0.4,2c0,0.3,0.1,0.7,0.2,1.2c0.1,0.5,0.3,0.9,0.5,1.4c0.2,0.2,0.4,0.3,0.6,0.5c0.2,0.2,0.4,0.4,0.6,0.6
		c0.2,0.2,0.5,0.4,0.7,0.6c0.2,0.1,0.5,0.1,1,0.2c0.4,0,1.1,0,2,0h1c-0.1,0.5-0.3,0.8-0.5,1.1c-0.2,0.3-0.5,0.6-0.9,0.8
		c-0.4,0.2-0.8,0.4-1.4,0.5c-0.5,0.1-1.2,0.3-2,0.4l0.4,2.4c0.9-0.2,1.7-0.3,2.5-0.5c0.8-0.2,1.4-0.5,2-0.9c0.6-0.4,1-0.9,1.4-1.5
		c0.4-0.6,0.7-1.4,0.9-2.3h2c0,0,0,0,0,0c0,0,0,0,0,0c0.3,0,0.5,0,0.7,0c0.2,0,0.4,0,0.6-0.1c0.2,0,0.3-0.1,0.5-0.1
		c0.2,0,0.4-0.1,0.6-0.2c0.2-0.1,0.4-0.2,0.6-0.4c0.2-0.2,0.4-0.4,0.7-0.7c0.5,0.2,1,0.4,1.4,0.7c0.5,0.2,1,0.5,1.4,0.7
		c0.8,0,1.5-0.1,2.1-0.3c0.6-0.2,1.1-0.5,1.6-0.8c0.2,0.1,0.4,0.3,0.7,0.4c0.3,0.1,0.6,0.3,0.9,0.4c0.3,0.1,0.7,0.2,1.1,0.3
		c0.4,0.1,0.9,0.1,1.4,0.1c0,0,0,0,0,0c0,0,0,0,0,0c0.5,0,1-0.1,1.5-0.2c0.5-0.1,0.9-0.3,1.3-0.5c0.4-0.2,0.8-0.5,1.1-0.9
		c0.3-0.3,0.5-0.8,0.7-1.2c0-2.2,0-4.3,0-6.4c0-2.1,0-4.2,0.1-6.3h-2.3C313.6,308.4,313.6,309,313.6,309.8z M292.9,320.2
		c0,0.2,0,0.5-0.1,0.7h-3.2l-1.1-1c-0.1-0.2-0.1-0.5-0.2-0.7c0-0.2-0.1-0.4-0.1-0.6c0-0.5,0.1-0.8,0.3-1.1c0.2-0.3,0.4-0.6,0.6-0.7
		c0.2-0.2,0.5-0.3,0.8-0.4c0.3-0.1,0.5-0.1,0.7-0.1c0.4,0,0.8,0.1,1,0.3c0.3,0.2,0.5,0.4,0.7,0.7c0.2,0.3,0.3,0.7,0.4,1
		c0.1,0.4,0.1,0.8,0.1,1.2C292.9,319.8,292.9,320,292.9,320.2z M305.9,320.3c-0.5,0.4-1.1,0.6-1.9,0.6c-0.1,0-0.3-0.1-0.6-0.2
		c-0.3-0.1-0.5-0.3-0.8-0.4c-0.3-0.1-0.5-0.3-0.7-0.4c-0.2-0.1-0.4-0.2-0.4-0.2c0.1-0.3,0.2-0.7,0.2-1c0.1-0.4,0.2-0.7,0.3-1
		c0.1-0.2,0.2-0.5,0.3-0.7c0.1-0.2,0.2-0.4,0.4-0.6c0.2-0.2,0.4-0.3,0.6-0.4c0.3-0.1,0.6-0.2,1-0.2c0.4,0,0.7,0.1,1,0.3
		c0.3,0.2,0.5,0.4,0.7,0.6c0.2,0.2,0.3,0.5,0.4,0.8c0.1,0.3,0.1,0.5,0.1,0.7C306.6,319.1,306.3,319.8,305.9,320.3z"/>
	<rect x="319.7" y="307.9" class="st0" width="2.3" height="15.5"/>
	<path class="st0" d="M336.5,316.3c-0.4-0.6-0.9-1.1-1.4-1.7c-0.5-0.6-1-1.1-1.5-1.8l-1.8,1.5l0,0l0.3,0.4c0.1,0.1,0.2,0.2,0.2,0.2
		c0.1,0.1,0.1,0.1,0.1,0.1l0,0c-0.4,0.2-0.8,0.4-1.2,0.6c-0.4,0.3-0.8,0.6-1.1,1c-0.3,0.4-0.6,0.9-0.9,1.4c-0.2,0.5-0.3,1-0.3,1.6
		c0,0.6,0.1,1.1,0.4,1.6c0.2,0.5,0.6,0.8,1,1.2c0.4,0.3,0.9,0.5,1.4,0.7c0.5,0.2,1.1,0.2,1.7,0.2c0.6,0,1.2,0,1.8-0.1
		c0.6-0.1,1-0.3,1.5-0.5c0.4-0.2,0.7-0.6,1-1c0.2-0.4,0.4-1,0.4-1.6c0-0.7-0.1-1.4-0.4-2C337.2,317.5,336.9,316.9,336.5,316.3z
		 M335.3,320.8c-0.1,0.1-0.3,0.2-0.5,0.3c-0.2,0.1-0.4,0.1-0.7,0.1c-0.2,0-0.5,0-0.7,0c-0.8,0-1.3-0.1-1.7-0.3
		c-0.3-0.2-0.5-0.6-0.5-1.1c0-0.4,0.1-0.8,0.3-1.1c0.2-0.3,0.4-0.6,0.7-0.8c0.3-0.2,0.6-0.4,0.9-0.5c0.3-0.1,0.7-0.2,1-0.3
		c0.3,0.4,0.6,0.9,0.9,1.4c0.3,0.5,0.5,1.1,0.5,1.7C335.5,320.5,335.4,320.6,335.3,320.8z"/>
	<path class="st0" d="M334.6,312.2c0.4,0,0.7-0.1,0.9-0.4c0.3-0.3,0.4-0.5,0.4-0.9c0-0.4-0.1-0.7-0.4-0.9c-0.3-0.2-0.6-0.3-0.9-0.3
		c-0.4,0-0.7,0.1-1,0.3c-0.3,0.2-0.4,0.5-0.4,0.9c0,0.3,0.1,0.6,0.4,0.9C333.9,312.1,334.2,312.2,334.6,312.2z"/>
	<path class="st0" d="M331.4,312.2c0.4,0,0.7-0.1,1-0.4c0.3-0.3,0.4-0.5,0.4-0.9c0-0.4-0.1-0.7-0.4-0.9c-0.3-0.2-0.6-0.3-1-0.3
		c-0.4,0-0.7,0.1-0.9,0.3c-0.3,0.2-0.4,0.5-0.4,0.9c0,0.3,0.1,0.6,0.4,0.9C330.7,312.1,331,312.2,331.4,312.2z"/>
	<path class="st0" d="M345.3,314.4l-2.4,0.5c0,0.4,0,0.8,0.1,1.2c0,0.3,0.1,0.7,0.1,1c0,0.3,0,0.7,0.1,1c0,0.3,0,0.7,0,1.1
		c0,1.3-0.1,2.4-0.2,3.2c-0.2,0.8-0.3,1.4-0.5,1.9c-0.1,0.1-0.2,0.3-0.3,0.5c-0.1,0.2-0.3,0.4-0.6,0.6c-0.3,0.2-0.7,0.4-1.1,0.5
		c-0.5,0.2-1.1,0.3-1.8,0.4l0.4,2.4c2.4-0.4,4.1-1.2,5.1-2.6c0.4-0.5,0.6-1,0.8-1.6c0.2-0.6,0.3-1.2,0.4-1.8
		c0.1-0.6,0.1-1.3,0.2-1.9c0-0.6,0-1.2,0-1.8c0-0.8,0-1.5-0.1-2.3C345.4,315.9,345.4,315.2,345.3,314.4z"/>
	<rect x="349.3" y="307.9" class="st0" width="2.3" height="15.5"/>
	<path class="st0" d="M357.1,312.5c0.4,0,0.7-0.1,0.9-0.4c0.3-0.3,0.4-0.5,0.4-0.9c0-0.4-0.1-0.7-0.4-0.9c-0.3-0.2-0.6-0.4-0.9-0.4
		s-0.7,0.1-0.9,0.4c-0.3,0.2-0.4,0.5-0.4,0.9c0,0.3,0.1,0.6,0.4,0.9C356.5,312.4,356.8,312.5,357.1,312.5z"/>
	<path class="st0" d="M359.1,314.4l-2.4,0.5c0,0.4,0,0.8,0.1,1.2c0,0.3,0.1,0.7,0.1,1c0,0.3,0,0.7,0.1,1c0,0.3,0,0.7,0,1.1
		c0,1.3-0.1,2.4-0.2,3.2c-0.2,0.8-0.3,1.4-0.5,1.9c-0.1,0.1-0.2,0.3-0.3,0.5c-0.1,0.2-0.3,0.4-0.6,0.6c-0.3,0.2-0.7,0.4-1.1,0.5
		c-0.5,0.2-1.1,0.3-1.8,0.4l0.4,2.4c2.4-0.4,4.1-1.2,5.1-2.6c0.4-0.5,0.6-1,0.8-1.6c0.2-0.6,0.3-1.2,0.4-1.8
		c0.1-0.6,0.1-1.3,0.2-1.9c0-0.6,0-1.2,0-1.8c0-0.8,0-1.5-0.1-2.3C359.2,315.9,359.2,315.2,359.1,314.4z"/>
	<path class="st0" d="M369.9,315.7c-0.4-0.5-0.9-0.9-1.5-1.3c-0.6-0.3-1.2-0.5-2-0.5c-0.6,0-1.2,0.1-1.8,0.3c-0.6,0.2-1.1,0.6-1.5,1
		c-0.4,0.4-0.8,0.9-1.1,1.5c-0.3,0.6-0.4,1.3-0.4,2c0,0.3,0.1,0.7,0.2,1.2c0.1,0.5,0.3,0.9,0.5,1.4c0.2,0.2,0.4,0.3,0.6,0.5
		c0.2,0.2,0.4,0.4,0.6,0.6c0.2,0.2,0.5,0.4,0.7,0.6c0.1,0,0.2,0,0.3,0.1c0.1,0,0.3,0,0.6,0.1c0.3,0,0.7,0,1.1,0.1c0.5,0,1.1,0,1.9,0
		h0.1c-0.1,0.5-0.3,0.8-0.5,1.1c-0.2,0.3-0.5,0.6-0.9,0.8c-0.4,0.2-0.8,0.4-1.4,0.5c-0.5,0.1-1.2,0.3-2,0.4l0.4,2.4
		c1.2-0.2,2.2-0.5,3.1-0.8c0.9-0.3,1.6-0.8,2.3-1.4c0.6-0.6,1.1-1.5,1.4-2.6c0.3-1.1,0.5-2.5,0.5-4.3c0-0.7-0.1-1.4-0.3-2.1
		C370.6,316.8,370.3,316.2,369.9,315.7z M368.7,320.2c0,0.2,0,0.5-0.1,0.7h-3.2l-1.1-1c-0.1-0.2-0.1-0.5-0.2-0.7
		c0-0.2-0.1-0.4-0.1-0.6c0-0.5,0.1-0.8,0.3-1.1c0.2-0.3,0.4-0.6,0.6-0.7c0.2-0.2,0.5-0.3,0.8-0.4c0.3-0.1,0.5-0.1,0.7-0.1
		c0.4,0,0.8,0.1,1,0.3c0.3,0.2,0.5,0.4,0.7,0.7c0.2,0.3,0.3,0.7,0.4,1c0.1,0.4,0.1,0.8,0.1,1.2C368.7,319.8,368.7,320,368.7,320.2z"
		/>
	<path class="st0" d="M381.1,323.4c0.3-0.3,0.5-0.6,0.9-0.8c0.3-0.2,0.6-0.3,1-0.3c1.2-0.1,2.2-0.2,3-0.3c0.8-0.1,1.5-0.3,1.9-0.5
		l-1-2.2c-0.1,0.1-0.4,0.1-0.9,0.3c-0.5,0.1-1.3,0.2-2.4,0.3c-0.5-0.4-0.9-0.9-1.2-1.4c-0.3-0.5-0.5-0.8-0.5-1.1
		c0-0.5,0.1-1,0.3-1.5c0.3-0.4,0.7-0.6,1.2-0.9c0.5-0.2,1-0.3,1.5-0.3c0.6,0,1.2,0.1,1.7,0.4c0.2-0.3,0.4-0.7,0.6-1
		c0.2-0.4,0.4-0.7,0.6-1c-0.4-0.2-0.9-0.4-1.3-0.5c-0.5-0.1-1-0.2-1.5-0.2c-0.7,0-1.4,0.1-2,0.3c-0.6,0.2-1.2,0.6-1.7,1
		c-0.5,0.4-0.9,1-1.2,1.6c-0.3,0.7-0.4,1.4-0.4,2.2c0,0.3,0,0.5,0.1,0.7c0.1,0.2,0.1,0.4,0.2,0.6c0.1,0.2,0.2,0.4,0.4,0.7
		c0.2,0.2,0.4,0.5,0.6,0.9c-0.9,0.5-1.6,1.3-2.2,2.2c-0.5,0.9-0.8,1.9-0.8,3c0,1,0.2,1.8,0.6,2.4c0.4,0.6,0.9,1.1,1.5,1.5
		c0.6,0.4,1.2,0.6,1.8,0.7c0.6,0.1,1.1,0.2,1.6,0.2c0.8,0,1.5-0.1,2.2-0.3c0.6-0.2,1.2-0.5,1.5-0.7l-1.3-2.1
		c-0.3,0.2-0.6,0.4-1.1,0.5c-0.4,0.1-0.9,0.2-1.5,0.2c-0.3,0-0.6,0-0.9-0.1c-0.3-0.1-0.7-0.2-1-0.3c-0.3-0.2-0.5-0.4-0.7-0.6
		c-0.2-0.3-0.3-0.6-0.3-1.1c0-0.5,0.1-1,0.2-1.4C380.6,324.1,380.9,323.7,381.1,323.4z"/>
	<path class="st0" d="M403.4,309.8c0.4,0,0.7-0.1,0.9-0.4c0.3-0.3,0.4-0.5,0.4-0.9c0-0.4-0.1-0.7-0.4-0.9c-0.3-0.2-0.6-0.4-0.9-0.4
		s-0.7,0.1-0.9,0.4c-0.3,0.2-0.4,0.5-0.4,0.9c0,0.3,0.1,0.6,0.4,0.9C402.8,309.7,403.1,309.8,403.4,309.8z"/>
	<path class="st0" d="M407.5,313.9c-0.2-0.6-0.5-1.1-0.9-1.5c-0.4-0.4-0.8-0.7-1.4-1c-0.5-0.2-1.1-0.4-1.7-0.4
		c-0.6,0-1.1,0.1-1.7,0.3c-0.6,0.2-1.1,0.5-1.5,0.9c-0.4,0.4-0.8,0.9-1.1,1.5c-0.3,0.6-0.4,1.2-0.4,2c0,0.3,0,0.7,0.1,1.1
		c0.1,0.4,0.2,0.8,0.4,1.4c0.4,0.4,0.8,0.7,1,0.9c0.2,0.2,0.4,0.4,0.5,0.5c0.1,0.1,0.2,0.2,0.2,0.2c0,0,0.1,0.1,0.1,0.1
		c0.1,0,0.1,0.1,0.2,0.1c0.1,0,0.2,0.1,0.4,0.1c0.2,0,0.4,0.1,0.7,0.1c0.3,0,0.6,0,1.1,0c0.2,0,0.4,0,0.6,0c0.2,0,0.5,0,0.8,0
		c-0.2,0.2-0.5,0.4-0.9,0.5c-0.3,0.1-0.7,0.2-1,0.2c-0.3,0.1-0.6,0.1-0.9,0.1c-0.3,0-0.5,0-0.7,0l-3.9,0c-0.1,0-0.1,0-0.2,0H397
		c-0.5,0-0.9,0-1.2-0.1c-0.3-0.1-0.6-0.2-0.9-0.3c0-0.4,0.1-0.9,0.1-1.3c0-0.4,0-0.9,0-1.4c0-0.4,0-0.9,0-1.4c0-0.5-0.1-1-0.1-1.5
		l-2.4,0.6c0,0.5,0.1,0.9,0.1,1.3c0,0.3,0,0.7,0,1.2c0,1.3,0,2.5-0.1,3.4c-0.1,0.9-0.2,1.7-0.5,2.4c-0.3,0.6-0.7,1.1-1.3,1.5
		c-0.6,0.3-1.5,0.6-2.6,0.7l0.4,2.4c1.3-0.2,2.3-0.5,3.1-0.9c0.8-0.4,1.5-0.9,2-1.6c0.3-0.4,0.5-0.8,0.7-1.3c0.2-0.5,0.3-1,0.4-1.6
		c0.2,0.1,0.4,0.1,0.7,0.2c0.2,0,0.5,0.1,0.7,0.1c0.3,0,0.5,0,0.7,0.1c0.2,0,0.4,0,0.6,0h3.8c1.4,0,2.5-0.1,3.3-0.2
		c0.9-0.2,1.5-0.5,2-1c0.5-0.5,0.8-1.3,1-2.3c0.2-1,0.3-2.4,0.3-4.1C407.8,315.1,407.7,314.5,407.5,313.9z M405.4,317.1
		c0,0.3,0,0.5-0.1,0.7c-0.3,0-0.6,0-0.9,0c-0.3,0-0.5,0-0.7,0c-0.3,0-0.6,0-0.8,0c-0.2,0-0.4,0-0.5,0c-0.1-0.1-0.2-0.2-0.4-0.3
		c-0.1-0.1-0.3-0.2-0.4-0.4c-0.1-0.2-0.2-0.3-0.3-0.5c-0.1-0.2-0.1-0.5-0.1-0.8c0-0.4,0.1-0.7,0.2-1c0.2-0.3,0.4-0.5,0.6-0.7
		c0.2-0.2,0.5-0.3,0.7-0.4c0.3-0.1,0.5-0.1,0.7-0.1c0.4,0,0.7,0.1,0.9,0.3c0.2,0.2,0.4,0.4,0.6,0.6c0.2,0.3,0.3,0.6,0.3,0.9
		c0.1,0.3,0.1,0.6,0.1,0.9C405.4,316.5,405.4,316.8,405.4,317.1z"/>
</g>
</svg>
